/videos/1937a41b-2e5d-bfc7-0f8d-ed14aae92582/hls1/main/0.ts

{"Protocol":0,"Id":"1937a41b2e5dbfc70f8ded14aae92582","Path":"/data/media/movies/Your Name. (2016)/Your Name (2016) 1080p BluRay x264 English AC3 5.1 - MeGUiL.mkv","EncoderPath":null,"EncoderProtocol":null,"Type":0,"Container":"mkv,webm","Size":2353924428,"Name":"Your Name (2016) 1080p BluRay x264 English AC3 5.1 - MeGUiL","IsRemote":false,"ETag":"67183cb948b75de0e22c92d13c6c5b5f","RunTimeTicks":63882879999,"ReadAtNativeFramerate":false,"IgnoreDts":false,"IgnoreIndex":false,"GenPtsInput":false,"SupportsTranscoding":true,"SupportsDirectStream":true,"SupportsDirectPlay":true,"IsInfiniteStream":false,"RequiresOpening":false,"OpenToken":null,"RequiresClosing":false,"LiveStreamId":null,"BufferMs":null,"RequiresLooping":false,"SupportsProbing":true,"VideoType":0,"IsoType":null,"Video3DFormat":null,"MediaStreams":[{"Codec":"h264","CodecTag":null,"Language":null,"ColorRange":null,"ColorSpace":null,"ColorTransfer":null,"ColorPrimaries":null,"DvVersionMajor":null,"DvVersionMinor":null,"DvProfile":null,"DvLevel":null,"RpuPresentFlag":null,"ElPresentFlag":null,"BlPresentFlag":null,"DvBlSignalCompatibilityId":null,"Comment":null,"TimeBase":"1/1000","CodecTimeBase":null,"Title":"Your Name (2016) 1080p BluRay x264 English AC3 5.1 - MeGUiL","VideoRange":"SDR","VideoRangeType":"SDR","VideoDoViTitle":null,"LocalizedUndefined":null,"LocalizedDefault":null,"LocalizedForced":null,"LocalizedExternal":null,"DisplayTitle":"Your Name (2016) 1080p BluRay x264 English AC3 5.1 - MeGUiL - H264 - SDR","NalLengthSize":"4","IsInterlaced":false,"IsAVC":true,"ChannelLayout":null,"BitRate":2947800,"BitDepth":8,"RefFrames":1,"PacketLength":null,"Channels":null,"SampleRate":null,"IsDefault":true,"IsForced":false,"Height":1080,"Width":1920,"AverageFrameRate":24,"RealFrameRate":24,"Profile":"High","Type":1,"AspectRatio":"16:9","Index":0,"Score":null,"IsExternal":false,"DeliveryMethod":null,"DeliveryUrl":null,"IsExternalUrl":null,"IsTextSubtitleStream":false,"SupportsExternalStream":false,"Path":null,"PixelFormat":"yuv420p","Level":41,"IsAnamorphic":null},{"Codec":"ac3","CodecTag":null,"Language":"eng","ColorRange":null,"ColorSpace":null,"ColorTransfer":null,"ColorPrimaries":null,"DvVersionMajor":null,"DvVersionMinor":null,"DvProfile":null,"DvLevel":null,"RpuPresentFlag":null,"ElPresentFlag":null,"BlPresentFlag":null,"DvBlSignalCompatibilityId":null,"Comment":null,"TimeBase":"1/1000","CodecTimeBase":null,"Title":"AC3 448 kbps 5.1 - MeGUiL","VideoRange":null,"VideoRangeType":null,"VideoDoViTitle":null,"LocalizedUndefined":null,"LocalizedDefault":null,"LocalizedForced":null,"LocalizedExternal":null,"DisplayTitle":"AC3 448 kbps 5.1 - MeGUiL - English - Dolby Digital - Default","NalLengthSize":null,"IsInterlaced":false,"IsAVC":null,"ChannelLayout":"5.1","BitRate":448000,"BitDepth":null,"RefFrames":null,"PacketLength":null,"Channels":6,"SampleRate":48000,"IsDefault":true,"IsForced":false,"Height":null,"Width":null,"AverageFrameRate":null,"RealFrameRate":null,"Profile":null,"Type":0,"AspectRatio":null,"Index":1,"Score":null,"IsExternal":false,"DeliveryMethod":null,"DeliveryUrl":null,"IsExternalUrl":null,"IsTextSubtitleStream":false,"SupportsExternalStream":false,"Path":null,"PixelFormat":null,"Level":0,"IsAnamorphic":null},{"Codec":"subrip","CodecTag":null,"Language":"eng","ColorRange":null,"ColorSpace":null,"ColorTransfer":null,"ColorPrimaries":null,"DvVersionMajor":null,"DvVersionMinor":null,"DvProfile":null,"DvLevel":null,"RpuPresentFlag":null,"ElPresentFlag":null,"BlPresentFlag":null,"DvBlSignalCompatibilityId":null,"Comment":null,"TimeBase":"1/1000","CodecTimeBase":null,"Title":null,"VideoRange":null,"VideoRangeType":null,"VideoDoViTitle":null,"LocalizedUndefined":"Undefined","LocalizedDefault":"Default","LocalizedForced":"Forced","LocalizedExternal":"External","DisplayTitle":"English - SUBRIP","NalLengthSize":null,"IsInterlaced":false,"IsAVC":null,"ChannelLayout":null,"BitRate":null,"BitDepth":null,"RefFrames":null,"PacketLength":null,"Channels":null,"SampleRate":null,"IsDefault":false,"IsForced":false,"Height":null,"Width":null,"AverageFrameRate":null,"RealFrameRate":null,"Profile":null,"Type":2,"AspectRatio":null,"Index":2,"Score":null,"IsExternal":false,"DeliveryMethod":null,"DeliveryUrl":null,"IsExternalUrl":null,"IsTextSubtitleStream":true,"SupportsExternalStream":true,"Path":null,"PixelFormat":null,"Level":0,"IsAnamorphic":null},{"Codec":"subrip","CodecTag":null,"Language":"eng","ColorRange":null,"ColorSpace":null,"ColorTransfer":null,"ColorPrimaries":null,"DvVersionMajor":null,"DvVersionMinor":null,"DvProfile":null,"DvLevel":null,"RpuPresentFlag":null,"ElPresentFlag":null,"BlPresentFlag":null,"DvBlSignalCompatibilityId":null,"Comment":null,"TimeBase":"1/1000","CodecTimeBase":null,"Title":null,"VideoRange":null,"VideoRangeType":null,"VideoDoViTitle":null,"LocalizedUndefined":"Undefined","LocalizedDefault":"Default","LocalizedForced":"Forced","LocalizedExternal":"External","DisplayTitle":"English - SUBRIP","NalLengthSize":null,"IsInterlaced":false,"IsAVC":null,"ChannelLayout":null,"BitRate":null,"BitDepth":null,"RefFrames":null,"PacketLength":null,"Channels":null,"SampleRate":null,"IsDefault":false,"IsForced":false,"Height":null,"Width":null,"AverageFrameRate":null,"RealFrameRate":null,"Profile":null,"Type":2,"AspectRatio":null,"Index":3,"Score":null,"IsExternal":false,"DeliveryMethod":null,"DeliveryUrl":null,"IsExternalUrl":null,"IsTextSubtitleStream":true,"SupportsExternalStream":true,"Path":null,"PixelFormat":null,"Level":0,"IsAnamorphic":null}],"MediaAttachments":[],"Formats":[],"Bitrate":3395800,"Timestamp":null,"RequiredHttpHeaders":{},"TranscodingUrl":null,"TranscodingSubProtocol":null,"TranscodingContainer":null,"AnalyzeDurationMs":null,"DefaultAudioStreamIndex":null,"DefaultSubtitleStreamIndex":null}

/usr/lib/jellyfin-ffmpeg/ffmpeg -analyzeduration 200M -fflags +genpts -f matroska,webm  -i file:"/data/media/movies/Your Name. (2016)/Your Name (2016) 1080p BluRay x264 English AC3 5.1 - MeGUiL.mkv" -map_metadata -1 -map_chapters -1 -threads 0 -map 0:0 -map 0:1 -map -0:s -codec:v:0 copy -bsf:v h264_mp4toannexb -start_at_zero -codec:a:0 libfdk_aac -ac 2 -ab 384000 -af "volume=2" -copyts -avoid_negative_ts disabled -max_muxing_queue_size 2048 -f hls -max_delay 5000000 -hls_time 6 -hls_segment_type mpegts -start_number 0 -hls_segment_filename "/config/data/transcodes/f2ba14e828f54b8cdf87a8410e831c19%d.ts" -hls_playlist_type vod -hls_list_size 0 -y "/config/data/transcodes/f2ba14e828f54b8cdf87a8410e831c19.m3u8"


ffmpeg version 5.1.3-Jellyfin Copyright (c) 2000-2022 the FFmpeg developers
  built with gcc 11 (Ubuntu 11.4.0-1ubuntu1~22.04)
  configuration: --prefix=/usr/lib/jellyfin-ffmpeg --target-os=linux --extra-libs=-lfftw3f --extra-version=Jellyfin --disable-doc --disable-ffplay --disable-ptx-compression --disable-static --disable-libxcb --disable-sdl2 --disable-xlib --enable-lto --enable-gpl --enable-version3 --enable-shared --enable-gmp --enable-gnutls --enable-chromaprint --enable-libdrm --enable-libass --enable-libfreetype --enable-libfribidi --enable-libfontconfig --enable-libbluray --enable-libmp3lame --enable-libopus --enable-libtheora --enable-libvorbis --enable-libopenmpt --enable-libdav1d --enable-libwebp --enable-libvpx --enable-libx264 --enable-libx265 --enable-libzvbi --enable-libzimg --enable-libfdk-aac --toolchain=hardened --enable-cross-compile --arch=arm64 --cross-prefix=/usr/bin/aarch64-linux-gnu-
  libavutil      57. 28.100 / 57. 28.100
  libavcodec     59. 37.100 / 59. 37.100
  libavformat    59. 27.100 / 59. 27.100
  libavdevice    59.  7.100 / 59.  7.100
  libavfilter     8. 44.100 /  8. 44.100
  libswscale      6.  7.100 /  6.  7.100
  libswresample   4.  7.100 /  4.  7.100
  libpostproc    56.  6.100 / 56.  6.100
Input #0, matroska,webm, from 'file:/data/media/movies/Your Name. (2016)/Your Name (2016) 1080p BluRay x264 English AC3 5.1 - MeGUiL.mkv':
  Metadata:
    title           : Your Name (2016) 1080p BluRay x264 English AC3 5.1 - MeGUiL
    encoder         : libebml v1.4.1 + libmatroska v1.6.2
    creation_time   : 2021-05-21T23:05:00.000000Z
  Duration: 01:46:28.29, start: 0.000000, bitrate: 2947 kb/s
  Stream #0:0: Video: h264 (High), yuv420p(progressive), 1920x1080 [SAR 1:1 DAR 16:9], 24 fps, 24 tbr, 1k tbn (default)
    Metadata:
      title           : Your Name (2016) 1080p BluRay x264 English AC3 5.1 - MeGUiL
      BPS-eng         : 2497964
      DURATION-eng    : 01:46:28.250000000
      NUMBER_OF_FRAMES-eng: 153318
      NUMBER_OF_BYTES-eng: 1994703021
      _STATISTICS_WRITING_APP-eng: mkvmerge v52.0.0 ('Secret For The Mad') 64-bit
      _STATISTICS_WRITING_DATE_UTC-eng: 2021-05-21 23:05:00
      _STATISTICS_TAGS-eng: BPS DURATION NUMBER_OF_FRAMES NUMBER_OF_BYTES
  Stream #0:1(eng): Audio: ac3, 48000 Hz, 5.1(side), fltp, 448 kb/s (default)
    Metadata:
      title           : AC3 448 kbps 5.1 - MeGUiL
      BPS-eng         : 448000
      DURATION-eng    : 01:46:28.288000000
      NUMBER_OF_FRAMES-eng: 199634
      NUMBER_OF_BYTES-eng: 357744128
      _STATISTICS_WRITING_APP-eng: mkvmerge v52.0.0 ('Secret For The Mad') 64-bit
      _STATISTICS_WRITING_DATE_UTC-eng: 2021-05-21 23:05:00
      _STATISTICS_TAGS-eng: BPS DURATION NUMBER_OF_FRAMES NUMBER_OF_BYTES
  Stream #0:2(eng): Subtitle: subrip
    Metadata:
      BPS-eng         : 50
      DURATION-eng    : 01:45:16.749000000
      NUMBER_OF_FRAMES-eng: 1255
      NUMBER_OF_BYTES-eng: 39528
      _STATISTICS_WRITING_APP-eng: mkvmerge v52.0.0 ('Secret For The Mad') 64-bit
      _STATISTICS_WRITING_DATE_UTC-eng: 2021-05-21 23:05:00
      _STATISTICS_TAGS-eng: BPS DURATION NUMBER_OF_FRAMES NUMBER_OF_BYTES
  Stream #0:3(eng): Subtitle: subrip
    Metadata:
      BPS-eng         : 3
      DURATION-eng    : 01:31:39.999000000
      NUMBER_OF_FRAMES-eng: 79
      NUMBER_OF_BYTES-eng: 2248
      _STATISTICS_WRITING_APP-eng: mkvmerge v52.0.0 ('Secret For The Mad') 64-bit
      _STATISTICS_WRITING_DATE_UTC-eng: 2021-05-21 23:05:00
      _STATISTICS_TAGS-eng: BPS DURATION NUMBER_OF_FRAMES NUMBER_OF_BYTES
Stream mapping:
  Stream #0:0 -> #0:0 (copy)
  Stream #0:1 -> #0:1 (ac3 (native) -> aac (libfdk_aac))
Press [q] to stop, [?] for help
Output #0, hls, to '/config/data/transcodes/f2ba14e828f54b8cdf87a8410e831c19.m3u8':
  Metadata:
    encoder         : Lavf59.27.100
  Stream #0:0: Video: h264 (High), yuv420p(progressive), 1920x1080 [SAR 1:1 DAR 16:9], q=2-31, 24 fps, 24 tbr, 90k tbn (default)
  Stream #0:1: Audio: aac, 48000 Hz, stereo, s16, 384 kb/s (default)
    Metadata:
      encoder         : Lavc59.37.100 libfdk_aac
frame=    1 fps=0.0 q=-1.0 size=N/A time=-00:00:00.02 bitrate=N/A speed=N/A    
[hls @ 0x557bf77860] Opening '/config/data/transcodes/f2ba14e828f54b8cdf87a8410e831c190.ts' for writing
frame=  304 fps=0.0 q=-1.0 size=N/A time=00:00:00.13 bitrate=N/A speed=0.261x    
[hls @ 0x557bf77860] Opening '/config/data/transcodes/f2ba14e828f54b8cdf87a8410e831c191.ts' for writing
frame=  593 fps=592 q=-1.0 size=N/A time=00:00:12.16 bitrate=N/A speed=12.1x    
[hls @ 0x557bf77860] Opening '/config/data/transcodes/f2ba14e828f54b8cdf87a8410e831c192.ts' for writing
frame=  772 fps=514 q=-1.0 size=N/A time=00:00:19.77 bitrate=N/A speed=13.2x    
[hls @ 0x557bf77860] Opening '/config/data/transcodes/f2ba14e828f54b8cdf87a8410e831c193.ts' for writing
frame=  983 fps=491 q=-1.0 size=N/A time=00:00:28.46 bitrate=N/A speed=14.2x    
[hls @ 0x557bf77860] Opening '/config/data/transcodes/f2ba14e828f54b8cdf87a8410e831c194.ts' for writing
frame= 1160 fps=463 q=-1.0 size=N/A time=00:00:35.97 bitrate=N/A speed=14.4x    
[hls @ 0x557bf77860] Opening '/config/data/transcodes/f2ba14e828f54b8cdf87a8410e831c195.ts' for writing
[hls @ 0x557bf77860] Opening '/config/data/transcodes/f2ba14e828f54b8cdf87a8410e831c196.ts' for writing
frame= 1411 fps=469 q=-1.0 size=N/A time=00:00:46.27 bitrate=N/A speed=15.4x    
[hls @ 0x557bf77860] Opening '/config/data/transcodes/f2ba14e828f54b8cdf87a8410e831c197.ts' for writing
[hls @ 0x557bf77860] Opening '/config/data/transcodes/f2ba14e828f54b8cdf87a8410e831c198.ts' for writing
[hls @ 0x557bf77860] Opening '/config/data/transcodes/f2ba14e828f54b8cdf87a8410e831c199.ts' for writing
[hls @ 0x557bf77860] Opening '/config/data/transcodes/f2ba14e828f54b8cdf87a8410e831c1910.ts' for writing
frame= 1662 fps=474 q=-1.0 size=N/A time=00:00:56.83 bitrate=N/A speed=16.2x    
[hls @ 0x557bf77860] Opening '/config/data/transcodes/f2ba14e828f54b8cdf87a8410e831c1911.ts' for writing
[hls @ 0x557bf77860] Opening '/config/data/transcodes/f2ba14e828f54b8cdf87a8410e831c1912.ts' for writing
frame= 1909 fps=476 q=-1.0 size=N/A time=00:01:07.01 bitrate=N/A speed=16.7x    
[hls @ 0x557bf77860] Opening '/config/data/transcodes/f2ba14e828f54b8cdf87a8410e831c1913.ts' for writing
frame= 2136 fps=474 q=-1.0 size=N/A time=00:01:16.61 bitrate=N/A speed=  17x    
[hls @ 0x557bf77860] Opening '/config/data/transcodes/f2ba14e828f54b8cdf87a8410e831c1914.ts' for writing
[hls @ 0x557bf77860] Opening '/config/data/transcodes/f2ba14e828f54b8cdf87a8410e831c1915.ts' for writing
frame= 2402 fps=479 q=-1.0 size=N/A time=00:01:27.55 bitrate=N/A speed=17.5x    
frame= 2631 fps=477 q=-1.0 size=N/A time=00:01:37.26 bitrate=N/A speed=17.6x    
[hls @ 0x557bf77860] Opening '/config/data/transcodes/f2ba14e828f54b8cdf87a8410e831c1916.ts' for writing
[hls @ 0x557bf77860] Opening '/config/data/transcodes/f2ba14e828f54b8cdf87a8410e831c1917.ts' for writing
frame= 2894 fps=481 q=-1.0 size=N/A time=00:01:48.07 bitrate=N/A speed=  18x    
[hls @ 0x557bf77860] Opening '/config/data/transcodes/f2ba14e828f54b8cdf87a8410e831c1918.ts' for writing
[hls @ 0x557bf77860] Opening '/config/data/transcodes/f2ba14e828f54b8cdf87a8410e831c1919.ts' for writing
frame= 3150 fps=484 q=-1.0 size=N/A time=00:01:58.78 bitrate=N/A speed=18.2x    
[hls @ 0x557bf77860] Opening '/config/data/transcodes/f2ba14e828f54b8cdf87a8410e831c1920.ts' for writing


[q] command received. Exiting.

[hls @ 0x557bf77860] Opening '/config/data/transcodes/f2ba14e828f54b8cdf87a8410e831c1921.ts' for writing
frame= 3293 fps=483 q=-1.0 Lsize=N/A time=00:02:04.76 bitrate=N/A speed=18.3x    
video:45775kB audio:6440kB subtitle:0kB other streams:0kB global headers:0kB muxing overhead: unknown